<svg xmlns="http://www.w3.org/2000/svg" viewBox="0 0 24 30" x="0px" y="0px"><path d="m22.08008,8.21875l-1.07031-1.60547c-.46484-.69727-1.24219-1.11328-2.08008-1.11328h-1.92969c-.82715,0-1.5.67285-1.5,1.5v8.5h-3.05054c-.2323-1.13971-1.24182-2-2.44946-2-.82086,0-1.54401.40271-2,1.01526-.45599-.61255-1.17914-1.01526-2-1.01526-1.20764,0-2.21716.86029-2.44946,2h-1.55054c-.27637,0-.5.22363-.5.5s.22363.5.5.5h1.55054c.2323,1.13971,1.24182,2,2.44946,2,.82086,0,1.54401-.40271,2-1.01526.45599.61255,1.17914,1.01526,2,1.01526,1.20764,0,2.21716-.86029,2.44946-2h3.10107c.2323,1.13971,1.24182,2,2.44946,2,1.22339,0,2.23944-.88422,2.4541-2.04596,1.16211-.21472,2.0459-1.23108,2.0459-2.45404v-4.39453c0-.49463-.14551-.97412-.41992-1.38672ZM6,17.5c-.82715,0-1.5-.67285-1.5-1.5s.67285-1.5,1.5-1.5,1.5.67285,1.5,1.5-.67285,1.5-1.5,1.5Zm4,0c-.82715,0-1.5-.67285-1.5-1.5s.67285-1.5,1.5-1.5,1.5.67285,1.5,1.5-.67285,1.5-1.5,1.5Zm8,0c-.82715,0-1.5-.67285-1.5-1.5s.67285-1.5,1.5-1.5,1.5.67285,1.5,1.5-.67285,1.5-1.5,1.5Zm3.5-3.5c0,.67731-.45398,1.24445-1.07159,1.43011-.25934-1.10364-1.2464-1.93011-2.42841-1.93011-.56506,0-1.08093.19537-1.5.51257v-2.9071h5v2.89453Zm0-3.89453h-5v-3.10547c0-.27588.22461-.5.5-.5h1.92969c.50293,0,.96875.24951,1.24805.66797l1.07031,1.60498c.16504.24805.25195.53564.25195.83252v.5Z" stroke-width="0"/><text x="0" y="39" fill="#000000" font-size="5px" font-weight="bold" font-family="'Helvetica Neue', Helvetica, Arial-Unicode, Arial, Sans-serif">Created by Royyan Wijaya</text><text x="0" y="44" fill="#000000" font-size="5px" font-weight="bold" font-family="'Helvetica Neue', Helvetica, Arial-Unicode, Arial, Sans-serif">from the Noun Project</text></svg>